<?xml version="1.0" encoding="UTF-8"?>
<svg width="24px" height="24px" viewBox="0 0 24 24" version="1.1" xmlns="http://www.w3.org/2000/svg">
    <g stroke="none" stroke-width="1" fill="none" fill-rule="evenodd">
        <path d="M12,2 C17.5228475,2 22,6.4771525 22,12 C22,17.5228475 17.5228475,22 12,22 C6.4771525,22 2,17.5228475 2,12 C2,6.4771525 6.4771525,2 12,2 Z M12,4 C7.581722,4 4,7.581722 4,12 C4,16.418278 7.581722,20 12,20 C16.418278,20 20,16.418278 20,12 C20,7.581722 16.418278,4 12,4 Z" fill="#1976d2"/>
        <path d="M13.5,7 L15.5,7 C16.3284271,7 17,7.67157288 17,8.5 L17,15.5 C17,16.3284271 16.3284271,17 15.5,17 L8.5,17 C7.67157288,17 7,16.3284271 7,15.5 L7,13.5" fill="#1976d2"/>
        <path d="M10.5,7 C9.67157288,7 9,7.67157288 9,8.5 L9,10.5 C9,11.3284271 8.32842712,12 7.5,12 L7,12 L7,8.5 C7,7.67157288 7.67157288,7 8.5,7 L10.5,7 Z" fill="#1976d2"/>
    </g>
</svg>
